# ProBuilder 4.0.5
# https://unity3d.com/unity/features/worldbuilding/probuilder
# 2020/10/18 17:47:59

mtllib ./arm.mtl
o arm

g arm
v -0.1750003 4.340534 -0.2500001
v -0.1750003 4.2605 -0.3500003
v -0.1750003 5.5105 -0.2500001
v -0.1750003 5.5105 -0.3500003
v 0.1750002 4.2605 -0.3500003
v 0.1750002 5.5105 -0.3500003
v 0.1750002 4.340534 -0.2500001
v 0.1750002 5.5105 -0.2500001
v -0.1750002 4.126046 -0.7218565
v -0.1750002 4.454938 -0.8415636
v -0.1750003 4.261334 -0.3501534
v -0.1750003 4.634189 -0.3490756
v 0.1750003 4.454938 -0.8415636
v 0.1750002 4.634189 -0.3490756
v 0.1750003 4.126046 -0.7218565
v 0.1750002 4.261334 -0.3501533
v 0.1750003 4.433866 -0.8894551
v -0.1750002 4.433866 -0.8894552
v 0.1750003 4.123412 -0.7278429
v -0.1750002 4.123412 -0.7278429
v 0.1750003 4.406722 -0.9341863
v -0.1750002 4.406722 -0.9341863
v 0.1750003 4.120019 -0.7334343
v -0.1750002 4.120019 -0.7334343
v 0.1750003 4.373972 -0.9749919
v -0.1750002 4.373972 -0.9749919
v 0.1750003 4.115925 -0.738535
v -0.1750002 4.115925 -0.738535
v 0.1750003 4.336176 -1.011174
v -0.1750002 4.336176 -1.011174
v 0.1750003 4.111201 -0.7430577
v -0.1750002 4.111201 -0.7430577
v 0.1750003 4.293982 -1.042113
v -0.1750002 4.293982 -1.042113
v 0.1750003 4.105927 -0.7469251
v -0.1750002 4.105927 -0.7469251
v 0.1750003 4.248109 -1.067279
v -0.1750002 4.248109 -1.067279
v 0.1750003 4.100193 -0.7500709
v -0.1750002 4.100193 -0.7500709
v -0.1750002 4.1 -0.7500008
v -0.1750002 4.247916 -1.067209
v -0.1750002 3.828108 -0.8767865
v -0.1750002 3.976024 -1.193995
v 0.1750003 4.247916 -1.067209
v 0.1750003 3.976024 -1.193995
v 0.1750003 4.1 -0.7500008
v 0.1750003 3.828108 -0.8767865
v 0.1750003 3.858691 -1.23193
v -0.1750002 3.858691 -1.23193
v 0.1750003 3.792908 -0.888167
v -0.1750002 3.792908 -0.888167
v 0.1750003 3.735642 -1.239995
v -0.1750002 3.735642 -1.239995
v 0.1750003 3.755993 -0.8905865
v -0.1750002 3.755993 -0.8905866
v 0.1750003 3.614362 -1.217699
v -0.1750002 3.614362 -1.217699
v 0.1750003 3.719609 -0.8838978
v -0.1750002 3.719609 -0.8838978
v 0.1750003 3.502227 -1.166399
v -0.1750002 3.502227 -1.166399
v 0.1750003 3.685968 -0.8685077
v -0.1750002 3.685968 -0.8685077
v 0.1750003 3.406057 -1.089215
v -0.1750002 3.406057 -1.089215
v 0.1750003 3.657118 -0.8453524
v -0.1750002 3.657118 -0.8453524
v 0.1750003 3.331702 -0.9908405
v -0.1750002 3.331702 -0.9908405
v 0.1750003 3.634811 -0.8158402
v -0.1750002 3.634811 -0.8158402
v -0.1750002 3.635096 -0.8157636
v -0.1750003 3.260096 -0.1662436
v -0.1750003 2.956987 -0.3412439
v 0.1750002 2.956987 -0.3412439
v 0.1750003 3.635096 -0.8157635
v 0.1750002 3.260096 -0.1662436

vt 0 0.1600685
vt -0.2000004 0
vt 4.172325E-07 2.5
vt -0.2 2.5
vt -2.980232E-08 0
vt -0.7 0
vt -0.7 2.5
vt 0.2 0
vt 0.2 2.5
vt 0.7 0.160069
vt 0.7 2.5
vt -2.980232E-08 -0.6999999
vt 0.2 -0.7
vt 0.1000206 -0.7
vt -0.1561476 -0.7
vt 0.1000209 0
vt -0.1561474 0
vt 0.04094225 0.1124875
vt -0.659058 0.112488
vt 0.04094309 0.9036025
vt -0.6590579 1.160676
vt -0.7 5.960464E-08
vt 2.980232E-08 1.048188
vt -0.6999999 1.048188
vt 0.6590579 0.1124882
vt -0.04094219 0.1124876
vt 0.6590579 1.160676
vt -0.04094315 0.9036025
vt 0.7 -2.980232E-08
vt 0.6999999 0.7911152
vt -2.980232E-08 0.791115
vt 0.2727251 1.192093E-07
vt 1.018437 0
vt 0.272725 -0.7
vt 1.018437 -0.7
vt -0.7 -0.7
vt 0.3499995 -5.960464E-08
vt 0.3499996 0.1046449
vt -0.3500004 1.788139E-07
vt -0.3500003 0.1046451
vt -0.3499995 0.0588624
vt -0.3499995 0.04578169
vt 0.3500004 0.05886234
vt 0.3500004 0.04578163
vt -5.960464E-08 0.6999999
vt 0.6999999 0.6999999
vt 0.3499996 0.1037497
vt 0.3499996 0.2083946
vt -0.3500003 0.1037499
vt -0.3500003 0.2083948
vt -0.3499995 0.1626131
vt -0.3499995 0.1495325
vt 0.3500004 0.1626131
vt 0.3500004 0.1495324
vt 0.3499996 0.2048291
vt 0.3499997 0.309474
vt -0.3500003 0.2048293
vt -0.3500003 0.3094742
vt -0.3499995 0.26369
vt -0.3499995 0.2506094
vt 0.3500004 0.26369
vt 0.3500004 0.2506094
vt 0.3499995 0.301509
vt 0.3499995 0.4061541
vt -0.3500005 0.3015091
vt -0.3500005 0.4061541
vt -0.3499995 0.3603728
vt -0.3499995 0.347292
vt 0.3500004 0.3603727
vt 0.3500004 0.347292
vt 0.3499995 0.3921337
vt 0.3499995 0.4967787
vt -0.3500006 0.3921337
vt -0.3500006 0.4967787
vt -0.3499995 0.4509959
vt -0.3499995 0.4379153
vt 0.3500004 0.4509959
vt 0.3500004 0.4379153
vt 0.3499995 0.4751542
vt 0.3499995 0.5797992
vt -0.3500006 0.4751542
vt -0.3500006 0.5797993
vt -0.3499995 0.534017
vt -0.3499995 0.5209363
vt 0.3500004 0.5340169
vt 0.3500004 0.5209363
vt -0.7 -0.4656854
vt -0.6999999 0.2343147
vt -5.960464E-08 -0.4656854
vt 5.960464E-08 0.2343146
vt 0.08367324 -0.1286635
vt 0.1560372 -0.2042555
vt 0.619903 0.3212893
vt 0.6289483 0.3118403
vt -0.1560371 -0.2042554
vt -0.08367315 -0.1286634
vt -0.6289482 0.3118404
vt -0.6199028 0.3212895
vt 0.06967962 -0.1071199
vt 0.1512905 -0.1726196
vt 0.5425928 0.4089736
vt 0.5527946 0.4007864
vt -0.1512904 -0.1726195
vt -0.0696795 -0.1071198
vt -0.5527948 0.4007862
vt -0.542593 0.4089735
vt 0.07197961 -0.08374301
vt 0.1614413 -0.1380302
vt 0.4734879 0.4896605
vt 0.4846705 0.4828745
vt -0.1614413 -0.1380303
vt -0.07197961 -0.08374307
vt -0.4846704 0.4828747
vt -0.4734879 0.4896606
vt 0.09053883 -0.0589357
vt 0.1863219 -0.1010811
vt 0.4137629 0.5619718
vt 0.4257358 0.5567037
vt -0.1863216 -0.101081
vt -0.09053846 -0.05893546
vt -0.4257361 0.5567033
vt -0.4137632 0.5619717
vt 0.1250311 -0.03311792
vt 0.2254951 -0.06240106
vt 0.3644515 0.6246651
vt 0.3770094 0.6210046
vt -0.225495 -0.06240103
vt -0.1250309 -0.03311792
vt -0.3770093 0.6210047
vt -0.3644515 0.6246651
vt 0.1748782 -0.006735504
vt 0.2783053 -0.02265418
vt 0.3263831 0.6766723
vt 0.3393112 0.6746824
vt -0.2783053 -0.02265418
vt -0.1748782 -0.006735504
vt -0.3393113 0.6746823
vt -0.3263831 0.6766723
vt -1.117257 0.375279
vt -0.6673058 -0.1609517
vt -0.657631 0.7609517
vt -0.2076794 0.224721
vt -1.05 3.874302E-07
vt -1.05 0.6000003
vt -0.3500004 0.6000003
vt 0.6673052 -0.1609518
vt 1.117257 0.3752788
vt 0.2076793 0.224721
vt 0.6576308 0.7609515
vt 0.3500005 2.980232E-08
vt 1.05 -2.980232E-08
vt 0.3500005 0.6000001
vt 1.05 0.6
vt 0.7 0
vt 5.960464E-08 -0.7
vt 0.6999996 -0.7
vt -0.3500005 -0.7
vt -1.050001 -0.6999999
vt 0.3499995 0.2466256
vt -0.3500006 0.2466257
vt -0.3499995 0.1603067
vt -0.3499995 0.08631891
vt 0.3500006 0.1603066
vt 0.3500006 0.08631885
vt -0.3500005 0.7
vt 0.3499995 0.6999999
vt 0.3499995 0.2391252
vt 0.3499995 0.4857509
vt -0.3500006 0.2391252
vt -0.3500006 0.4857509
vt -0.3499995 0.3994319
vt -0.3499995 0.3254441
vt 0.3500006 0.3994318
vt 0.3500006 0.3254441
vt 0.3499995 0.4562054
vt 0.3499995 0.702831
vt -0.3500006 0.4562054
vt -0.3500006 0.702831
vt -0.3499995 0.6165125
vt -0.3499995 0.5425248
vt 0.3500006 0.6165124
vt 0.3500006 0.5425247
vt -0.9880375 0.7
vt -1.234663 0.7
vt -0.9880375 -2.980232E-08
vt -1.234663 -2.980232E-08
vt 1.148344 0.6999999
vt 1.074356 0.7
vt 1.148344 -1.192093E-07
vt 1.074355 0
vt -1.12356 0.7
vt -1.370186 0.7
vt -1.12356 -2.980232E-08
vt -1.370186 -2.980232E-08
vt 1.283867 0.7
vt 1.209879 0.7
vt 1.283867 -2.980232E-08
vt 1.209879 -5.960464E-08
vt -0.504531 0.7
vt -0.7511566 0.7
vt -0.504531 5.960464E-08
vt -0.7511566 5.960464E-08
vt 0.6648376 0.6999999
vt 0.59085 0.6999999
vt 0.6648375 2.980232E-08
vt 0.5908498 2.980232E-08
vt -0.7 0.2128443
vt -0.6999999 0.9128443
vt -5.960464E-08 0.2128443
vt 5.960464E-08 0.9128443
vt 0.05309117 -0.1616137
vt 0.2210272 0.01900133
vt -0.3968601 0.3746171
vt -0.3464791 0.4288021
vt -0.2210272 0.01900133
vt -0.05309123 -0.1616138
vt 0.346479 0.4288021
vt 0.39686 0.3746171
vt 0.1387839 0.0206199
vt 0.2574078 0.2368433
vt -0.4287228 0.4304203
vt -0.3931358 0.4952868
vt -0.2574078 0.2368433
vt -0.1387839 0.0206199
vt 0.3931357 0.4952868
vt 0.4287227 0.4304204
vt 0.2370207 0.1670191
vt 0.2991181 0.405698
vt -0.4135225 0.4254637
vt -0.3948932 0.4970678
vt -0.299118 0.4056979
vt -0.2370206 0.1670191
vt 0.3948932 0.4970679
vt 0.4135225 0.4254638
vt 0.4078185 0.3652654
vt 0.4096118 0.611885
vt -0.2861929 0.4566323
vt -0.285655 0.5306182
vt -0.4096117 0.6118852
vt -0.4078184 0.3652657
vt 0.285655 0.5306185
vt 0.2861928 0.4566326
vt 0.62375 0.5412945
vt 0.5651305 0.7808523
vt -0.07151693 0.4600289
vt -0.08910286 0.531896
vt -0.5651305 0.7808522
vt -0.62375 0.5412945
vt 0.08910286 0.5318961
vt 0.07151693 0.4600289
vt 0.8716804 0.6844001
vt 0.7562136 0.9023256
vt 0.2174476 0.4354438
vt 0.1828076 0.5008215
vt -0.7562134 0.9023256
vt -0.8716803 0.6844002
vt -0.1828076 0.5008214
vt -0.2174475 0.4354438
vt 0.9490393 0.82189
vt 0.5990399 1.428108
vt -0.35 0.07189167
vt -0.6999998 0.6781101
vt -0.3499994 -5.960464E-08
vt -0.3499996 1.5
vt 0.3500003 1.5
vt -0.5990399 1.428108
vt -0.9490391 0.8218895
vt 0.7 0.6781104
vt 0.3500003 0.0718919
vt -0.3500002 1.5
vt 0.3499995 1.5

vn -1 0 -1.490114E-07
vn 0 0 -1
vn 1 0 2.980228E-07
vn 0 0 1
vn 0 1 0
vn 0 -0.7807388 0.6248576
vn 0 0.9396928 -0.3420197
vn 0 -0.9396932 0.3420187
vn -1.70298E-07 -0.002890581 0.9999958
vn 0 -0.3420206 -0.9396924
vn 6.858754E-08 0.9153107 -0.4027483
vn 0 -0.9153145 0.4027398
vn 8.834633E-08 0.8549122 -0.5187727
vn 0 -0.8548961 0.5187992
vn 1.065934E-07 0.7798871 -0.6259202
vn -1.065929E-07 -0.7798898 0.6259168
vn 1.230176E-07 0.6915135 -0.7223635
vn 0 -0.6915141 0.7223629
vn 0 0.5913137 -0.8064417
vn -1.373358E-07 -0.591315 0.8064407
vn 0 0.4809872 -0.8767276
vn 0 -0.4810019 0.8767195
vn -7.465245E-08 -0.4809984 0.8767215
vn 0 0.9063081 0.4226176
vn 0 0.4226193 -0.9063073
vn 0 -0.4226192 0.9063073
vn 0 0.3076338 -0.9515048
vn -1.620402E-07 -0.3076314 0.9515056
vn 0 0.06540266 -0.9978589
vn -1.699341E-07 -0.06540413 0.9978589
vn 0 -0.1808043 -0.9835191
vn 0 0.1808036 0.9835192
vn 0 -0.4160172 -0.9093567
vn -1.548622E-07 0.4160188 0.909356
vn 0 -0.6259239 -0.7798841
vn -1.328131E-07 0.6259255 0.7798828
vn 0 -0.7977598 -0.6029755
vn 0 0.7977586 0.602977
vn 0 0.5000007 -0.8660251
vn 0 -0.8660256 -0.4999997
vn -8.51493E-08 0.8660257 0.4999995

g arm
usemtl White
f 3/3/1 4/4/1 2/2/1 1/1/1
f 4/3/2 6/7/2 5/6/2 2/5/2
f 6/9/3 8/3/3 7/1/3 5/8/3
f 8/11/4 3/3/4 1/1/4 7/10/4
f 8/12/5 6/13/5 4/8/5 3/5/5
f 1/16/6 2/17/6 5/15/6 7/14/6
f 11/20/1 12/21/1 10/19/1 9/18/1
f 12/23/7 14/24/7 13/22/7 10/5/7
f 14/27/3 16/28/3 15/26/3 13/25/3
f 16/30/8 11/31/8 9/5/8 15/29/8
f 16/34/9 14/35/9 12/33/9 11/32/9
f 9/5/10 10/6/10 13/36/10 15/12/10
f 13/37/11 17/38/11 18/40/11 10/39/11
f 19/41/12 15/42/12 9/44/12 20/43/12
f 13/5/10 15/29/10 9/46/10 10/45/10
f 17/47/13 21/48/13 22/50/13 18/49/13
f 23/51/14 19/52/14 20/54/14 24/53/14
f 21/55/15 25/56/15 26/58/15 22/57/15
f 27/59/16 23/60/16 24/62/16 28/61/16
f 25/63/17 29/64/17 30/66/17 26/65/17
f 31/67/18 27/68/18 28/70/18 32/69/18
f 29/71/19 33/72/19 34/74/19 30/73/19
f 35/75/20 31/76/20 32/78/20 36/77/20
f 33/79/21 37/80/21 38/82/21 34/81/21
f 39/83/22 35/84/23 36/86/23 40/85/23
f 39/89/24 37/90/24 38/88/24 40/87/24
f 10/91/1 18/92/1 20/94/1 9/93/1
f 17/95/3 13/96/3 15/98/3 19/97/3
f 18/99/1 22/100/1 24/102/1 20/101/1
f 21/103/3 17/104/3 19/106/3 23/105/3
f 22/107/1 26/108/1 28/110/1 24/109/1
f 25/111/3 21/112/3 23/114/3 27/113/3
f 26/115/1 30/116/1 32/118/1 28/117/1
f 29/119/3 25/120/3 27/122/3 31/121/3
f 30/123/1 34/124/1 36/126/1 32/125/1
f 33/127/3 29/128/3 31/130/3 35/129/3
f 34/131/1 38/132/1 40/134/1 36/133/1
f 37/135/3 33/136/3 35/138/3 39/137/3
f 41/139/1 42/140/1 44/142/1 43/141/1
f 42/143/25 45/39/25 46/145/25 44/144/25
f 45/146/3 47/147/3 48/149/3 46/148/3
f 47/150/26 41/151/26 43/153/26 48/152/26
f 48/155/24 46/156/24 44/154/24 43/5/24
f 47/39/24 45/143/24 42/158/24 41/157/24
f 46/37/27 49/159/27 50/160/27 44/39/27
f 51/161/28 48/162/28 43/164/28 52/163/28
f 44/39/24 43/37/24 48/166/24 46/165/24
f 49/167/29 53/168/29 54/170/29 50/169/29
f 55/171/30 51/172/30 52/174/30 56/173/30
f 53/175/31 57/176/31 58/178/31 54/177/31
f 59/179/32 55/180/32 56/182/32 60/181/32
f 57/183/33 61/184/33 62/186/33 58/185/33
f 63/187/34 59/188/34 60/190/34 64/189/34
f 61/191/35 65/192/35 66/194/35 62/193/35
f 67/195/36 63/196/36 64/198/36 68/197/36
f 65/199/37 69/200/37 70/202/37 66/201/37
f 71/203/38 67/204/38 68/206/38 72/205/38
f 71/209/39 69/210/39 70/208/39 72/207/39
f 44/211/1 50/212/1 52/214/1 43/213/1
f 49/215/3 46/216/3 48/218/3 51/217/3
f 50/219/1 54/220/1 56/222/1 52/221/1
f 53/223/3 49/224/3 51/226/3 55/225/3
f 54/227/1 58/228/1 60/230/1 56/229/1
f 57/231/3 53/232/3 55/234/3 59/233/3
f 58/235/1 62/236/1 64/238/1 60/237/1
f 61/239/3 57/240/3 59/242/3 63/241/3
f 62/243/1 66/244/1 68/246/1 64/245/1
f 65/247/3 61/248/3 63/250/3 67/249/3
f 66/251/1 70/252/1 72/254/1 68/253/1
f 69/255/3 65/256/3 67/258/3 71/257/3
f 73/259/1 70/260/1 75/262/1 74/261/1
f 70/263/40 69/150/40 76/265/40 75/264/40
f 69/266/3 77/267/3 78/269/3 76/268/3
f 77/39/41 73/37/41 74/271/41 78/270/41
f 78/12/39 76/156/39 75/29/39 74/5/39
f 77/39/39 69/143/39 70/158/39 73/157/39

