# ProBuilder 4.0.5
# https://unity3d.com/unity/features/worldbuilding/probuilder
# 2020/10/18 17:58:57

mtllib ./cap.mtl
o cap

g cap
v 0.750002 3.9 -0.4400013
v 0.750002 4.1 -0.4400013
v 0.4388745 3.9 -0.3111281
v 0.4388745 4.1 -0.3111281
v 0.3100013 3.9 -6.854534E-07
v 0.3100013 4.1 -6.854534E-07
v 0.4388745 3.9 0.3111268
v 0.4388745 4.1 0.3111268
v 0.7500019 3.9 0.4399999
v 0.7500019 4.1 0.4399999
v 1.061129 3.9 0.3111268
v 1.061129 4.1 0.3111268
v 1.190003 3.9 -5.960464E-07
v 1.190003 4.1 -5.960464E-07
v 1.061129 3.9 -0.311128
v 1.061129 4.1 -0.311128
v 0.7500019 3.9 -6.556511E-07
v 0.7500019 4.4 -0.1892509
v 0.7500019 4.4 -6.556511E-07
v 0.6207602 4.4 -0.1332811
v 0.5680015 4.4 -6.556511E-07
v 0.6207601 4.4 0.1332799
v 0.7500019 4.4 0.1892496
v 0.8792436 4.4 0.1332799
v 0.9320022 4.4 -6.556511E-07
v 0.8792437 4.4 -0.1332811
v 1.135513 4.270711 -0.04619464
v 1.055264 4.270711 -0.2399339
v 1.066149 4.329289 -0.0421527
v 1.002541 4.329289 -0.2000412
v 0.9899353 4.270711 -0.3052621
v 0.796196 4.270711 -0.3855117
v 0.9445621 4.329289 -0.2596532
v 0.7909991 4.329289 -0.3250529
v 0.703808 4.270711 -0.3855117
v 0.5100686 4.270711 -0.3052622
v 0.7090048 4.329289 -0.3250529
v 0.5554419 4.329289 -0.2596534
v 0.3644909 4.270711 0.04619336
v 0.4447403 4.270711 0.2399327
v 0.4338551 4.329289 0.04215142
v 0.4974629 4.329289 0.20004
v 0.4447404 4.270711 -0.239934
v 0.3644909 4.270711 -0.04619473
v 0.497463 4.329289 -0.2000413
v 0.4338551 4.329289 -0.04215273
v 0.5100685 4.270711 0.305261
v 0.7038078 4.270711 0.3855104
v 0.5554418 4.329289 0.259652
v 0.7090047 4.329289 0.3250515
v 0.7961959 4.270711 0.3855104
v 0.9899352 4.270711 0.305261
v 0.7909991 4.329289 0.3250515
v 0.944562 4.329289 0.259652
v 1.055263 4.270711 0.2399328
v 1.135513 4.270711 0.04619345
v 1.002541 4.329289 0.2000401
v 1.066149 4.329289 0.04215145
v 0.958223 4.364703 -0.1845832
v 1.023851 4.364833 -0.02096438
v 0.7702069 4.365151 -0.2815375
v 0.9290341 4.365276 -0.2136067
v 0.5709698 4.365276 -0.2136068
v 0.7297969 4.365151 -0.2815375
v 0.5417809 4.364703 0.184582
v 0.4761524 4.364833 0.02096313
v 0.4761524 4.364833 -0.02096444
v 0.5417809 4.364703 -0.1845833
v 0.7297969 4.365151 0.2815361
v 0.5709698 4.365276 0.2136055
v 0.929034 4.365276 0.2136055
v 0.7702069 4.365151 0.2815361
v 1.023851 4.364833 0.02096313
v 0.9582229 4.364703 0.1845821
v 1.183593 3.9 -0.4400012
v 1.183593 4 -0.4400012
v 0.738875 3.9 -0.4335859
v 0.738875 4 -0.4335859
v 0.6100017 3.9 -6.556511E-07
v 0.6100017 4 -6.556511E-07
v 0.7388749 3.9 0.4447172
v 0.7388749 4 0.4447172
v 1.179882 3.9 0.4400001
v 1.179882 4 0.4400001
v 1.36113 3.9 0.3111268
v 1.36113 4 0.3111268
v 1.490003 3.9 -5.960464E-07
v 1.490003 4 -5.960464E-07
v 1.36113 3.9 -0.311128
v 1.36113 4 -0.311128
v 1.050002 3.9 -6.258488E-07
v 1.050002 4 -6.258488E-07

vt 0 0
vt 0 0.2
vt 0.6735228 0
vt 0.6735228 0.2
vt 0.4762526 0
vt 0.4762526 0.2
vt 1.149776 0
vt 1.149776 0.2
vt -0.6735228 0
vt -0.6735228 0.2
vt -1.149775 0
vt -1.149775 0.2
vt -0.4762525 0
vt -0.4762525 0.2
vt 0.88 5.960464E-08
vt 0.257746 0.622254
vt -0.4 0
vt -0.88 0
vt -0.5405888 0.3394112
vt 0.8800001 -5.960464E-08
vt 0.8800001 0.8799999
vt -0.8800001 0.48
vt 0.88 0.88
vt 1.502254 0.622254
vt -1.219411 0.3394113
vt 1.76 -2.980232E-08
vt -1.36 -4.196293E-08
vt 1.502254 -0.6222539
vt -1.219411 -0.3394112
vt 0.8800001 -0.88
vt -0.88 -0.48
vt 0.88 -0.88
vt 0.2577461 -0.6222541
vt -0.5405888 -0.3394113
vt -1.022716 -0.006562095
vt -0.6033126 -0.00656211
vt -1.000299 0.07318994
vt -0.6257296 0.07318993
vt -0.4526816 -0.4403986
vt -0.3391919 -0.03664217
vt -0.5233923 -0.3972371
vt -0.4220346 -0.03664217
vt -0.3391919 0.03664218
vt -0.4526815 0.4403985
vt -0.4220346 0.03664218
vt -0.5233923 0.3972369
vt 0.6033124 -0.4636136
vt 1.022716 -0.4636136
vt 0.6257295 -0.3838616
vt 1.000299 -0.3838615
vt -0.5115404 0.3199301
vt -0.8695235 0.5384414
vt -0.5722259 0.2635368
vt -0.8919406 0.4586893
vt 0.1270597 -0.7867977
vt 0.5464629 -0.7867977
vt 0.1494767 -0.7070457
vt 0.5240458 -0.7070457
vt -0.9053162 0.3131697
vt -0.7918266 -0.09058643
vt -0.8224736 0.3131697
vt -0.7211159 -0.04742495
vt -1.022716 -0.4636136
vt -0.6033123 -0.4636136
vt -1.000299 -0.3838616
vt -0.6257293 -0.3838615
vt -1.092834 -0.1209777
vt -0.4585473 0.03677833
vt -1.047823 0.208914
vt -0.6528521 0.3071488
vt -0.7931854 -0.5824669
vt -0.7859696 -0.4160318
vt -0.9823042 -0.5647839
vt -0.9585406 -0.3998961
vt -0.5706217 -0.2659062
vt -0.8946825 -0.4048201
vt -0.5350713 -0.3597273
vt -0.8477654 -0.4943418
vt -0.5883245 -0.3844481
vt -0.4932177 -0.5157639
vt -0.4727452 -0.2842355
vt -0.3659793 -0.4031163
vt -0.6165814 0.04923806
vt 0.01770529 0.2069941
vt -0.5715704 0.3791298
vt -0.1765994 0.4773646
vt -0.4504609 0.006205965
vt -0.5790443 -0.314463
vt -0.3565071 -0.03577419
vt -0.4802604 -0.3458057
vt -0.4121419 -0.07451493
vt -0.2613595 -0.1020298
vt -0.393577 0.09150729
vt -0.2404414 0.08503756
vt 0.05694133 0.04923835
vt 0.6912281 0.2069941
vt 0.1019526 0.3791298
vt 0.4969235 0.4773644
vt -0.5788739 0.3144951
vt -0.4502651 -0.006163523
vt -0.4800924 0.3458457
vt -0.3563146 0.03582407
vt -0.4960931 0.2910022
vt -0.3708593 0.3790073
vt -0.5886019 0.4072264
vt -0.4722744 0.5090959
vt 0.5331941 -0.3616991
vt 1.167481 -0.203943
vt 0.5782052 -0.03180742
vt 0.9731761 0.06642741
vt -0.9668146 0.582467
vt -0.9740305 0.4160318
vt -0.7776957 0.564784
vt -0.8014594 0.3998961
vt -1.172197 0.1854795
vt -0.8481365 0.3243936
vt -1.207748 0.2793006
vt -0.8950536 0.4139152
vt -1.092154 0.2315963
vt -1.187261 0.362912
vt -1.207734 0.1313837
vt -1.3145 0.2502644
vt 0.5331941 -0.1209779
vt 1.167481 0.03677823
vt 0.5782052 0.2089139
vt 0.9731762 0.3071487
vt -0.8945935 0.405032
vt -0.5705208 0.2661455
vt -0.847684 0.4945576
vt -0.5349784 0.3599695
vt 0.05694133 -0.531915
vt 0.691228 -0.3741589
vt 0.1019524 -0.2020233
vt 0.4969233 -0.1037885
vt -1.214733 -0.08427539
vt -1.08615 0.2363935
vt -1.308687 -0.04229524
vt -1.184934 0.2677361
vt -1.171777 0.07451493
vt -1.32256 0.1020298
vt -1.190342 -0.09150743
vt -1.343478 -0.08503766
vt -0.6165814 -0.5319148
vt 0.01770523 -0.374159
vt -0.5715702 -0.2020234
vt -0.1765995 -0.1037888
vt -1.08665 -0.2366876
vt -1.215259 0.08397096
vt -1.185432 -0.2680382
vt -1.309209 0.04198332
vt -1.181404 -0.1328031
vt -1.306637 -0.2208082
vt -1.088895 -0.2490273
vt -1.205222 -0.3508968
vt -1.092834 -0.3616994
vt -0.4585472 -0.2039434
vt -1.047823 -0.03180775
vt -0.6528521 0.06642711
vt -0.8482893 -0.3248859
vt -1.172362 -0.1859994
vt -0.8951989 -0.4144116
vt -1.207905 -0.2798235
vt -0.88 -0.3049388
vt -0.787612 -0.1024084
vt -0.972388 -0.1024084
vt -0.6034165 0.02503195
vt -0.7306573 0.2213756
vt -0.5515257 0.2531732
vt 0.01883751 0.1637218
vt -0.1084033 0.3600655
vt 0.07072824 0.391863
vt 0.6410916 0.02503189
vt 0.5138505 0.2213755
vt 0.692982 0.2531733
vt 0.8800001 -0.3049388
vt 0.972388 -0.1024084
vt 0.7876121 -0.1024084
vt 0.6410913 -0.6446218
vt 0.5138505 -0.4482782
vt 0.692982 -0.4164807
vt 0.01883763 -0.7833116
vt -0.1084032 -0.586968
vt 0.07072833 -0.5551705
vt -0.603416 -0.6446218
vt -0.730657 -0.4482781
vt -0.5515255 -0.4164806
vt -0.689023 0.2237041
vt -0.5780505 -0.02954924
vt -0.5256606 0.3294734
vt -0.3907545 0.01829539
vt -0.9126766 0.2759927
vt -0.6459453 0.1760769
vt -0.8693925 0.4697064
vt -0.5418499 0.3455292
vt -1.102418 0.1552466
vt -0.8422124 0.2633476
vt -1.212815 0.3140836
vt -0.8933484 0.4482565
vt -1.146659 -0.05079386
vt -1.043409 0.2084907
vt -1.34148 -0.01113194
vt -1.216103 0.3073906
vt -1.045968 -0.2022537
vt -1.15694 0.05099976
vt -1.20933 -0.308023
vt -1.344236 0.003154993
vt -0.843088 -0.2549393
vt -1.10982 -0.1550238
vt -0.886372 -0.4486532
vt -1.213915 -0.324476
vt -0.6532416 -0.1768145
vt -0.9134469 -0.2849151
vt -0.5428441 -0.3356515
vt -0.8623111 -0.4698241
vt -0.5877382 0.02883935
vt -0.690988 -0.2304453
vt -0.3929169 -0.01082259
vt -0.5182948 -0.3293452
vt -0.470769 0.2984862
vt -0.5772722 0.2660554
vt -0.625525 0.3240212
vt -0.5708321 0.4135748
vt -0.3775954 -0.08485723
vt -0.4764117 -0.03706598
vt -0.4713552 0.04343629
vt -0.3673354 0.07848692
vt -0.7927502 0.4150321
vt -0.8415745 0.3181236
vt -0.92506 0.3236783
vt -0.9606152 0.426201
vt -1.114015 0.2779481
vt -1.065345 0.182564
vt -1.117467 0.1271246
vt -1.221759 0.1681964
vt -1.25993 0.07848686
vt -1.15591 0.04343632
vt -1.150854 -0.03706607
vt -1.24967 -0.08485734
vt -1.223563 -0.1744517
vt -1.123615 -0.1233159
vt -1.067282 -0.1749452
vt -1.107522 -0.2762499
vt -0.9682593 -0.414357
vt -0.9169418 -0.3158025
vt -0.8337713 -0.3233477
vt -0.8010276 -0.4295284
vt -0.5827612 -0.4113376
vt -0.6230007 -0.3100331
vt -0.5666677 -0.2584036
vt -0.4667202 -0.3095393
vt -0.5100237 0.303331
vt -0.5654353 0.3597134
vt -0.585749 -0.0009298027
vt -0.3979333 0.04133588
vt -0.3971348 -0.03947616
vt -0.8800001 0.2634957
vt -0.8380726 0.4505295
vt -0.9219276 0.4505295
vt -1.071413 0.1693678
vt -1.179888 0.3287322
vt -1.235299 0.2723497
vt -1.143885 -2.980232E-08
vt -1.331719 0.04041004
vt -1.331719 -0.04041007
vt -1.071413 -0.1693678
vt -1.235299 -0.2723497
vt -1.179888 -0.328732
vt -0.8799999 -0.2634956
vt -0.9219275 -0.4505295
vt -0.8380725 -0.4505295
vt -0.6739101 -0.2003493
vt -0.5654355 -0.3597136
vt -0.5100238 -0.303331
vt -0.2671522 0
vt -0.2671522 0.2
vt 0.6223742 0
vt 0.6223742 0.2
vt 0.1895843 0
vt 0.1895843 0.2
vt 1.094248 0
vt 1.094248 0.2
vt 0.6002908 0
vt 0.6002908 0.2
vt 1.526318 0
vt 1.526318 0.2
vt -0.6411439 0
vt -0.6411439 0.2
vt 0.2409191 0
vt 0.2409191 0.2
vt -0.8081874 0
vt -0.8081874 0.2
vt -0.3633999 0
vt -0.3633999 0.2
vt -1.149775 0.2
vt -0.4762525 0.2
vt -0.6549802 0
vt -0.6549802 0.2
vt -0.2162198 0
vt -0.2162198 0.2
vt -5.960464E-08 -0.2671799
vt 0.01283062 0.622254
vt -0.01283062 0.622254
vt -0.8799999 0.88
vt 0.8800002 0.8800001
vt 1.769434 0.622254
vt -0.8800001 0.8800001
vt -0.8800002 2.980232E-08
vt -1.769434 0.622254
vt 1.76 -0.2597585
vt -1.76 -0.2597585
vt -1.76 -0.2597584
vt -1.502254 -0.6222539
vt 0.88 -0.8800001
vt -0.8800001 -0.8800001
vt -0.88 -0.88
vt -0.2577461 -0.6222541

vn 1.290312E-07 0 -1
vn -0.7071067 0 -0.7071069
vn -1 0 -1.61289E-08
vn -0.7071068 0 0.7071068
vn -6.45156E-08 0 1
vn 0.7071067 0 0.7071069
vn 1 0 1.290312E-07
vn 0.7071069 0 -0.7071067
vn 0 -1 0
vn 0 1 0
vn 0.6151982 0.7460538 -0.2548234
vn 0.621235 0.7413575 -0.2537647
vn 0.6272718 0.7366612 -0.2527061
vn 0.2684765 0.712608 -0.6481591
vn 0.2738598 0.7070549 -0.6519204
vn 0.2792431 0.7015017 -0.6556818
vn -0.2722966 0.7026402 -0.6573822
vn -0.2733131 0.7083282 -0.6507641
vn -0.2743296 0.7140163 -0.6441459
vn -0.6151982 0.7460538 0.2548233
vn -0.6212348 0.7413577 0.2537647
vn -0.6272713 0.7366617 0.252706
vn -0.6239071 0.7375318 -0.2584311
vn -0.6202049 0.7423425 -0.2533995
vn -0.6165026 0.7471532 -0.2483679
vn -0.2684763 0.7126083 0.6481588
vn -0.2738594 0.7070554 0.6519201
vn -0.2792425 0.7015024 0.6556813
vn 0.2722964 0.7026408 0.6573816
vn 0.2733129 0.7083288 0.6507635
vn 0.2743294 0.7140169 0.6441454
vn 0.6239072 0.7375318 0.2584311
vn 0.6202049 0.7423425 0.2533995
vn 0.6165026 0.7471532 0.2483678
vn 0.9074179 0.1879325 -0.3758646
vn 0.6452084 0.7640067 0
vn 0.5591785 0.7979532 -0.2249222
vn 0.5587618 0.7982427 -0.22493
vn 0.5583451 0.7985322 -0.2249379
vn 0.4774362 0.7459408 -0.4643565
vn 0.4767506 0.7426746 -0.4702106
vn 0.476065 0.7394083 -0.4760646
vn 0.3758648 0.1879325 -0.9074178
vn 0.2342508 0.8022042 -0.5491768
vn 0.233946 0.8024884 -0.548891
vn 0.2336411 0.8027728 -0.5486053
vn 0 0.7181865 -0.6958507
vn -0.3758646 0.1879323 -0.9074179
vn -0.2339559 0.8027609 -0.5484885
vn -0.23395 0.802479 -0.548903
vn -0.233944 0.8021972 -0.5493175
vn -0.4826652 0.7393637 -0.4694418
vn -0.4770427 0.7423501 -0.4704309
vn -0.4714201 0.7453365 -0.4714198
vn -0.9074178 0.1879324 0.3758648
vn -0.6452084 0.7640067 0
vn -0.5591787 0.7979531 0.2249223
vn -0.558762 0.7982426 0.2249302
vn -0.5583451 0.7985321 0.224938
vn -0.4774359 0.7459413 0.4643562
vn -0.4767503 0.7426749 0.4702104
vn -0.4760647 0.7394086 0.4760647
vn -0.9074177 0.1879328 -0.3758648
vn -0.558482 0.7985194 -0.2246435
vn -0.5587739 0.7982326 -0.224936
vn -0.5590659 0.7979457 -0.2252286
vn -0.3758647 0.1879321 0.9074179
vn -0.2342502 0.8022043 0.5491767
vn -0.2339456 0.8024884 0.5488911
vn -0.2336409 0.8027726 0.5486056
vn 0 0.7181872 0.69585
vn 0.3758646 0.1879319 0.907418
vn 0.2339558 0.8027605 0.5484892
vn 0.2339499 0.8024789 0.5489032
vn 0.233944 0.8021974 0.5493174
vn 0.4826646 0.7393639 0.4694421
vn 0.4770423 0.7423502 0.4704311
vn 0.47142 0.7453364 0.47142
vn 0.9074177 0.1879327 0.3758648
vn 0.5584819 0.7985194 0.2246434
vn 0.5587739 0.7982326 0.2249359
vn 0.5590658 0.7979458 0.2252285
vn 0.9526473 0.3040775 0
vn 0.6736237 0.3040777 -0.673623
vn 0 0.3040773 -0.9526473
vn -0.6736236 0.3040777 -0.6736231
vn -0.9526473 0.3040775 0
vn -0.6736234 0.3040772 0.6736234
vn 0 0.3040769 0.9526475
vn 0.6736233 0.3040776 0.6736233
vn -0.1383556 0.9374376 -0.3194816
vn -0.1379691 0.9368211 -0.3214441
vn -0.1375825 0.9362047 -0.3234066
vn -0.328507 0.9355069 -0.1300386
vn -0.3296698 0.9348572 -0.1317391
vn -0.3308325 0.9342076 -0.1334395
vn -0.33206 0.9340548 0.1314448
vn -0.3300045 0.9347214 0.1318643
vn -0.327949 0.9353879 0.1322837
vn -0.1398197 0.936061 0.3228628
vn -0.1381101 0.9366938 0.3217542
vn -0.1364005 0.9373267 0.3206456
vn 0.1383555 0.9374375 0.319482
vn 0.1379689 0.936821 0.3214444
vn 0.1375824 0.9362046 0.3234069
vn 0.3285068 0.935507 0.1300381
vn 0.3296697 0.9348572 0.1317388
vn 0.3308327 0.9342075 0.1334395
vn 0.3320603 0.9340547 -0.1314445
vn 0.3300046 0.9347214 -0.1318641
vn 0.3279488 0.935388 -0.1322836
vn 0.1398196 0.9360611 -0.3228625
vn 0.1381102 0.9366939 -0.3217541
vn 0.1364008 0.9373267 -0.3206456
vn -0.458598 0.7685971 -0.446034
vn 0 0.7717103 -0.6359742
vn -0.643337 0.7655832 0
vn -0.4585984 0.768597 0.4460337
vn 0 0.7717105 0.6359739
vn 0.4585977 0.7685969 0.4460346
vn 0.643337 0.7655831 0
vn 0.4585983 0.7685974 -0.4460334
vn -0.25989 0.9345853 -0.2429147
vn 0 0.9355212 -0.3532705
vn -0.3575672 0.9338874 0
vn -0.2598903 0.9345852 0.2429146
vn 0 0.9355211 0.3532707
vn 0.2598901 0.9345852 0.2429149
vn 0.3575668 0.9338876 0
vn 0.2598905 0.9345852 -0.2429146
vn 0.3019474 0 -0.9533246
vn -0.6037166 0 -0.797199
vn -0.9999942 0 -0.003425252
vn -0.5964091 0 0.8026806
vn 0.3092402 0 0.9509839
vn 0.7821411 0 0.6231014
vn 0.7851856 0 -0.6192605

g cap
usemtl White
f 1/1/9 17/15/9 3/16/9
f 3/16/9 17/20/9 5/21/9
f 5/23/9 17/15/9 7/24/9
f 7/24/9 17/15/9 9/26/9
f 9/26/9 17/15/9 11/28/9
f 11/28/9 17/20/9 13/30/9
f 13/32/9 17/15/9 15/33/9
f 15/33/9 17/20/9 1/1/9
f 20/19/10 19/18/10 18/17/10
f 21/22/10 19/18/10 20/19/10
f 22/25/10 19/18/10 21/22/10
f 23/27/10 19/18/10 22/25/10
f 24/29/10 19/18/10 23/27/10
f 25/31/10 19/18/10 24/29/10
f 26/34/10 19/18/10 25/31/10
f 18/17/10 19/18/10 26/34/10
f 14/163/83 27/164/83 56/165/83
f 31/168/84 28/167/84 16/166/84
f 35/171/85 32/170/85 2/169/85
f 43/174/86 36/173/86 4/172/86
f 6/175/87 39/176/87 44/177/87
f 47/180/88 40/179/88 8/178/88
f 51/183/89 48/182/89 10/181/89
f 55/186/90 52/185/90 12/184/90
f 20/10/123 63/251/123 68/252/123
f 61/255/124 64/254/124 18/253/124
f 21/256/125 67/257/125 66/258/125
f 22/259/126 65/260/126 70/261/126
f 23/262/127 69/263/127 72/264/127
f 24/265/128 71/266/128 74/267/128
f 25/268/129 73/269/129 60/270/129
f 26/271/130 59/272/130 62/273/130
f 75/300/9 91/15/9 77/301/9
f 77/301/9 91/15/9 79/23/9
f 79/304/9 91/20/9 81/305/9
f 81/305/9 91/15/9 83/309/9
f 83/309/9 91/15/9 85/28/9
f 85/28/9 91/15/9 87/313/9
f 87/32/9 91/15/9 89/33/9
f 89/33/9 91/15/9 75/300/9
f 78/302/10 92/18/10 76/300/10
f 80/303/10 92/18/10 78/302/10
f 82/308/10 92/307/10 80/306/10
f 84/310/10 92/18/10 82/308/10
f 86/312/10 92/18/10 84/311/10
f 88/314/10 92/18/10 86/312/10
f 90/316/10 92/18/10 88/315/10
f 76/300/10 92/18/10 90/316/10
f 4/4/2 2/2/1 1/1/1
f 1/1/1 3/3/2 4/4/2
f 6/8/3 4/6/2 3/5/2
f 3/5/2 5/7/3 6/8/3
f 8/8/4 6/6/3 5/5/3
f 5/5/3 7/7/4 8/8/4
f 10/4/5 8/2/4 7/1/4
f 7/1/4 9/3/5 10/4/5
f 12/2/6 10/10/5 9/9/5
f 9/9/5 11/1/6 12/2/6
f 14/14/7 12/12/6 11/11/6
f 11/11/6 13/13/7 14/14/7
f 16/14/8 14/12/7 13/11/7
f 13/11/7 15/13/8 16/14/8
f 2/2/1 16/10/8 15/9/8
f 15/9/8 1/1/1 2/2/1
f 29/37/12 27/35/11 28/36/12
f 28/36/12 30/38/13 29/37/12
f 33/41/15 31/39/14 32/40/15
f 32/40/15 34/42/16 33/41/15
f 37/45/18 35/43/17 36/44/18
f 36/44/18 38/46/19 37/45/18
f 41/49/21 39/47/20 40/48/21
f 40/48/21 42/50/22 41/49/21
f 45/53/24 43/51/23 44/52/24
f 44/52/24 46/54/25 45/53/24
f 49/57/27 47/55/26 48/56/27
f 48/56/27 50/58/28 49/57/27
f 53/61/30 51/59/29 52/60/30
f 52/60/30 54/62/31 53/61/30
f 57/65/33 55/63/32 56/64/33
f 56/64/33 58/66/34 57/65/33
f 27/69/35 14/67/35 16/68/35
f 16/68/35 28/70/35 27/69/35
f 56/73/36 27/71/36 29/72/36
f 29/72/36 58/74/36 56/73/36
f 30/77/38 59/75/37 60/76/38
f 60/76/38 29/78/39 30/77/38
f 33/81/41 30/79/40 28/80/41
f 28/80/41 31/82/42 33/81/41
f 31/85/43 16/83/43 2/84/43
f 2/84/43 32/86/43 31/85/43
f 34/89/45 61/87/44 62/88/45
f 62/88/45 33/90/46 34/89/45
f 37/93/47 34/91/47 32/92/47
f 32/92/47 35/94/47 37/93/47
f 35/97/48 2/95/48 4/96/48
f 4/96/48 36/98/48 35/97/48
f 38/101/50 63/99/49 64/100/50
f 64/100/50 37/102/51 38/101/50
f 45/105/53 38/103/52 36/104/53
f 36/104/53 43/106/54 45/105/53
f 39/109/55 6/107/55 8/108/55
f 8/108/55 40/110/55 39/109/55
f 44/113/56 39/111/56 41/112/56
f 41/112/56 46/114/56 44/113/56
f 42/117/58 65/115/57 66/116/58
f 66/116/58 41/118/59 42/117/58
f 49/121/61 42/119/60 40/120/61
f 40/120/61 47/122/62 49/121/61
f 43/125/63 4/123/63 6/124/63
f 6/124/63 44/126/63 43/125/63
f 46/129/65 67/127/64 68/128/65
f 68/128/65 45/130/66 46/129/65
f 47/133/67 8/131/67 10/132/67
f 10/132/67 48/134/67 47/133/67
f 50/137/69 69/135/68 70/136/69
f 70/136/69 49/138/70 50/137/69
f 53/141/71 50/139/71 48/140/71
f 48/140/71 51/142/71 53/141/71
f 51/145/72 10/143/72 12/144/72
f 12/144/72 52/146/72 51/145/72
f 54/149/74 71/147/73 72/148/74
f 72/148/74 53/150/75 54/149/74
f 57/153/77 54/151/76 52/152/77
f 52/152/77 55/154/78 57/153/77
f 55/157/79 12/155/79 14/156/79
f 14/156/79 56/158/79 55/157/79
f 58/161/81 73/159/80 74/160/81
f 74/160/81 57/162/82 58/161/81
f 63/189/92 20/187/91 18/188/92
f 18/188/92 64/190/93 63/189/92
f 67/193/95 21/191/94 20/192/95
f 20/192/95 68/194/96 67/193/95
f 65/197/98 22/195/97 21/196/98
f 21/196/98 66/198/99 65/197/98
f 69/201/101 23/199/100 22/200/101
f 22/200/101 70/202/102 69/201/101
f 71/205/104 24/203/103 23/204/104
f 23/204/104 72/206/105 71/205/104
f 73/209/107 25/207/106 24/208/107
f 24/208/107 74/210/108 73/209/107
f 59/213/110 26/211/109 25/212/110
f 25/212/110 60/214/111 59/213/110
f 61/217/113 18/215/112 26/216/113
f 26/216/113 62/218/114 61/217/113
f 68/221/115 63/220/115 38/219/115
f 38/219/115 45/222/115 68/221/115
f 64/225/116 61/224/116 34/223/116
f 34/223/116 37/226/116 64/225/116
f 66/229/117 67/228/117 46/227/117
f 46/227/117 41/230/117 66/229/117
f 49/234/118 70/233/118 65/232/118
f 65/232/118 42/231/118 49/234/118
f 50/235/119 53/238/119 72/237/119
f 72/237/119 69/236/119 50/235/119
f 57/242/120 74/241/120 71/240/120
f 71/240/120 54/239/120 57/242/120
f 58/243/121 29/246/121 60/245/121
f 60/245/121 73/244/121 58/243/121
f 30/247/122 33/250/122 62/249/122
f 62/249/122 59/248/122 30/247/122
f 78/277/132 76/275/131 75/274/131
f 75/274/131 77/276/132 78/277/132
f 80/281/133 78/279/132 77/278/132
f 77/278/132 79/280/133 80/281/133
f 82/285/134 80/283/133 79/282/133
f 79/282/133 81/284/134 82/285/134
f 84/289/135 82/287/134 81/286/134
f 81/286/134 83/288/135 84/289/135
f 86/293/136 84/291/135 83/290/135
f 83/290/135 85/292/136 86/293/136
f 88/295/7 86/294/136 85/11/136
f 85/11/136 87/13/7 88/295/7
f 90/295/137 88/294/7 87/11/7
f 87/11/7 89/13/137 90/295/137
f 76/299/131 90/297/137 89/296/137
f 89/296/137 75/298/131 76/299/131

