# ProBuilder 4.0.5
# https://unity3d.com/unity/features/worldbuilding/probuilder
# 2020/10/18 17:24:32

mtllib ./chin.mtl
o chin

g Cylinder
v 1.427832 3.216481 -0.3500003
v 1.427832 3.216481 0.3700011
v 0.92472 3.236977 -0.3500004
v 0.9247199 3.236977 0.3700007
v 0.6489598 3.242048 -0.3500004
v 0.6489598 3.242048 0.3700007
v 0.4647029 3.250281 -0.3500004
v 0.4647028 3.250281 0.3700005
v 0.4000004 2.925 -0.3500004
v 0.4000003 2.925 0.3700004
v 0.4647028 2.599719 -0.3500005
v 0.4647027 2.599719 0.3700004
v 0.6489598 2.323959 -0.3500005
v 0.6489598 2.323959 0.3700004
v 0.9247199 2.139702 -0.3500005
v 0.9247198 2.139702 0.3700004
v 1.250001 2.075 -0.3500004
v 1.250001 2.075 0.3700004
v 1.575282 2.139702 -0.3500004
v 1.575282 2.139702 0.3700005
v 1.851043 2.323959 -0.3500003
v 1.851042 2.323959 0.3700005
v 2.0353 2.599719 -0.3500003
v 2.0353 2.599719 0.3700006
v 2.065934 2.790099 -0.3500003
v 2.065934 2.790098 0.3700012
v 2.204138 2.800229 -0.3500003
v 2.204138 2.800229 0.3700018
v 2.195016 2.902587 -0.3500003
v 2.195016 2.902586 0.3700016
v 1.433794 2.929017 -0.3500004
v 1.433794 2.929017 0.3700016
v 1.250001 2.925 -0.3500003
v 1.250001 2.925 0.3700005

vt -0.4008352 -1.132762E-07
vt -0.4008352 1.200001
vt 0.6062217 -1.181629E-07
vt 0.6062217 1.2
vt 0.6306681 9.923124E-08
vt 0.6306681 1.2
vt 1.182281 9.802226E-08
vt 1.182281 1.200001
vt 1.153306 -1.002509E-08
vt 1.153306 1.200001
vt 1.522187 0
vt 1.522187 1.2
vt 1.335682 0
vt 1.335682 1.2
vt 1.998989 0
vt 1.998989 1.2
vt 1.081845 0
vt 1.081845 1.2
vt 1.745152 0
vt 1.745152 1.2
vt 0.6128156 0
vt 0.6128156 1.2
vt 1.276123 0
vt 1.276123 1.2
vt 7.844574E-07 0
vt 7.844574E-07 1.2
vt 0.6633082 0
vt 0.6633082 1.2
vt -0.6633081 0
vt -0.6633081 1.2
vt -1.276122 0
vt -1.276122 1.2
vt -0.612815 0
vt -0.612815 1.2
vt -1.745152 0
vt -1.745152 1.2
vt -1.081845 0
vt -1.081845 1.2
vt -2.071193 0
vt -2.071193 1.2
vt -1.685536 -2.148123E-08
vt -1.685536 1.200001
vt 1.483496 -2.279369E-07
vt 1.483496 1.200001
vt 1.760646 -2.303522E-07
vt 1.760646 1.200002
vt -2.111236 -2.38965E-08
vt -2.111236 1.200002
vt -1.905709 -4.830047E-08
vt -1.905709 1.200002
vt -1.949435 -4.830047E-08
vt -1.949435 1.200002
vt -0.4260744 -1.142066E-07
vt -0.4260744 1.200002
vt -1.699225 -1.142066E-07
vt -1.699225 1.200002
vt -1.124173 -3.929399E-09
vt -1.124173 1.200001
vt 1.117038 -0.3556604
vt 1.7 7.195956E-17
vt 1.076045 0.6505618
vt -1.117036 -0.3556614
vt -1.699999 -9.103492E-07
vt -1.076044 0.6505609
vt 1.065904 1.202082
vt -1.7 5.202963E-07
vt -1.065904 1.202082
vt 1.049438 1.570595
vt -1.049434 1.570593
vt 1.7 1.7
vt -1.7 1.7
vt 2.350562 1.570595
vt -2.350562 1.570595
vt 2.902081 1.202082
vt -2.902081 1.202082
vt 3.270595 0.6505619
vt -3.270595 0.6505619
vt 3.4 -1.486187E-07
vt -3.4 -1.486187E-07
vt 3.270595 -0.6505619
vt -3.270595 -0.6505619
vt 2.902082 -1.202081
vt -2.902082 -1.202081
vt 2.350562 -1.570595
vt -2.350562 -1.570595
vt 1.969803 -1.631864
vt -1.9698 -1.631865
vt 1.949542 -1.908272
vt -1.94953 -1.908275
vt 1.744827 -1.890028
vt -1.744828 -1.890029
vt 1.691966 -0.3675847
vt -1.691861 -0.3675883

vn 0.3570679 0.350004 4.298998E-08
vn 0.01477367 0.4997818 9.113901E-08
vn 0.01575675 0.4997517 7.635339E-08
vn -0.3084897 0.3934899 1.013285E-08
vn -0.5000005 3.038619E-08 -5.960469E-08
vn -0.4619402 -0.1913418 -7.787729E-08
vn -0.3535537 -0.3535534 -8.429377E-08
vn -0.191342 -0.4619398 -7.78773E-08
vn 1.899139E-08 -0.5000001 -5.96047E-08
vn 0.1913419 -0.4619398 -3.225783E-08
vn 0.3535537 -0.3535535 -2.278788E-14
vn 0.4653831 -0.1828088 3.368545E-08
vn 0.3379598 -0.368488 3.726998E-08
vn 0.3810095 -0.3237777 2.800666E-08
vn 0.3438481 0.3629996 8.426284E-08
vn 0.3560145 0.3510753 8.429171E-08
vn 7.376103E-08 6.679159E-08 -0.6000007
vn -4.508375E-07 -6.580664E-07 0.6000007

g Cylinder
usemtl pink
f 1/59/17 33/60/17 3/61/17
f 3/61/17 33/60/17 5/65/17
f 5/65/17 33/60/17 7/68/17
f 7/68/17 33/60/17 9/70/17
f 9/70/17 33/60/17 11/72/17
f 11/72/17 33/60/17 13/74/17
f 13/74/17 33/60/17 15/76/17
f 15/76/17 33/60/17 17/78/17
f 17/78/17 33/60/17 19/80/17
f 19/80/17 33/60/17 21/82/17
f 21/82/17 33/60/17 23/84/17
f 23/84/17 33/60/17 25/86/17
f 25/86/17 33/60/17 27/88/17
f 27/88/17 33/60/17 29/90/17
f 29/90/17 33/60/17 31/92/17
f 31/92/17 33/60/17 1/59/17
f 4/64/18 34/63/18 2/62/18
f 6/67/18 34/66/18 4/64/18
f 8/69/18 34/63/18 6/67/18
f 10/71/18 34/66/18 8/69/18
f 12/73/18 34/66/18 10/71/18
f 14/75/18 34/66/18 12/73/18
f 16/77/18 34/66/18 14/75/18
f 18/79/18 34/66/18 16/77/18
f 20/81/18 34/66/18 18/79/18
f 22/83/18 34/66/18 20/81/18
f 24/85/18 34/66/18 22/83/18
f 26/87/18 34/63/18 24/85/18
f 28/89/18 34/63/18 26/87/18
f 30/91/18 34/66/18 28/89/18
f 32/93/18 34/63/18 30/91/18
f 2/62/18 34/66/18 32/93/18
f 4/4/2 2/2/1 1/1/1
f 1/1/1 3/3/2 4/4/2
f 6/8/3 4/6/2 3/5/2
f 3/5/2 5/7/3 6/8/3
f 8/12/4 6/10/3 5/9/3
f 5/9/3 7/11/4 8/12/4
f 10/16/5 8/14/4 7/13/4
f 7/13/4 9/15/5 10/16/5
f 12/16/6 10/14/5 9/13/5
f 9/13/5 11/15/6 12/16/6
f 14/20/7 12/18/6 11/17/6
f 11/17/6 13/19/7 14/20/7
f 16/24/8 14/22/7 13/21/7
f 13/21/7 15/23/8 16/24/8
f 18/28/9 16/26/8 15/25/8
f 15/25/8 17/27/9 18/28/9
f 20/26/10 18/30/9 17/29/9
f 17/29/9 19/25/10 20/26/10
f 22/34/11 20/32/10 19/31/10
f 19/31/10 21/33/11 22/34/11
f 24/38/12 22/36/11 21/35/11
f 21/35/11 23/37/12 24/38/12
f 26/42/13 24/40/12 23/39/12
f 23/39/12 25/41/13 26/42/13
f 28/46/14 26/44/13 25/43/13
f 25/43/13 27/45/14 28/46/14
f 30/50/15 28/48/14 27/47/14
f 27/47/14 29/49/15 30/50/15
f 32/54/16 30/52/15 29/51/15
f 29/51/15 31/53/16 32/54/16
f 2/58/1 32/56/16 31/55/16
f 31/55/16 1/57/1 2/58/1

