# ProBuilder 4.0.5
# https://unity3d.com/unity/features/worldbuilding/probuilder
# 2020/10/18 17:24:52

mtllib ./trg.mtl
o trg

g Cube
v 0.4000003 2.9 0.2500003
v 0.4000004 2.9 -0.2500001
v 1.200001 2.9 0.2640685
v 1.200001 2.9 -0.2500001
v 1.444131 -4.768372E-07 0.2640685
v 1.444132 -4.768372E-07 -0.25
v 0.6438702 -4.768372E-07 0.2500004
v 0.6438702 -4.768372E-07 -0.2500001
v 0.5463223 0.1031322 -0.2500001
v 0.5463222 0.1031322 0.2500004
v 0.4000004 0.9012935 -0.2500001
v 0.4000003 0.9012935 0.2500003
v 1.392533 0.002689362 0.2640685
v 1.392533 0.002689362 -0.25
v 1.473822 0.1380026 0.2640685
v 1.315642 0.8983657 0.2640685
v 1.315642 0.8983657 -0.25
v 1.473822 0.1380026 -0.25
v 0.4000004 1.833582 -0.2500001
v 0.4000003 1.833582 0.2500003
v 1.200001 1.843062 -0.2500001
v 1.200001 1.843062 0.2640685
v 1.395549 0.09082747 0.2625867
v 1.395538 0.09082762 -0.25

vt 0 0
vt 1 0
vt -0.02813601 -1.6
vt 1 -1.6
vt 0.02813601 -2.08826
vt -1 -2.08826
vt 0 -0.4877393
vt -1 -0.4877393
vt 0 -0.1110459
vt -1 -0.1110459
vt -1 0.1342209
vt 0 0.1342209
vt -1 1.755247
vt 0 1.755247
vt -0.02813608 0.08699624
vt -0.02813608 0.06988196
vt 0.9999999 0.06988196
vt 0.9999999 0.08699624
vt -0.02813608 0.469882
vt -0.02813607 1.871463
vt 0.9999999 1.871463
vt 0.9999999 0.469882
vt -1 3.570856
vt 0 3.570856
vt -1 5.647676
vt 0 5.647676
vt 0 1.802588
vt -1.831281 1.796732
vt -1.6 3.686126
vt 0 3.667166
vt -1.6 5.8
vt 0 5.8
vt -0.02813612 1.681941
vt -0.02813611 3.581908
vt 0.9999999 3.581908
vt 0.9999999 1.681941
vt -0.02813611 5.691864
vt 0.9999999 5.691864
vt 1.600247 3.686126
vt 1.831496 1.79673
vt 0 5.799999
vt 1.600247 5.8
vt -0.02813601 1.026847
vt 1 1.026847
vt -0.02813601 1.342552
vt 1 1.342552
vt 0.2926019 0.2062618
vt 1.991237 0.1816497
vt 1.985256 0.005375768
vt 2.088438 -5.1804E-06
vt 0.4876699 -6.01437E-06
vt 2.14781 0.2760002
vt -2.08826 0
vt -1.985064 0.005379677
vt -1.991073 0.1816562
vt -0.2926435 0.2062654
vt -0.4877393 0
vt -2.147641 0.2760062
vt 1.985025 0.005926819
vt 2.14753 0.2765963
vt 1.990966 0.182231

vn 0 0.5 0
vn 0 -0.5 0
vn -0.3632523 -0.3435812 -4.330305E-08
vn -0.4918046 -0.09015927 -5.862767E-08
vn 0.02602992 0.499322 3.103008E-09
vn 0.4895202 0.1018356 5.835534E-08
vn -0.5000005 0 -5.960469E-08
vn 5.960469E-08 0 -0.5000005
vn 0.496296 0.0607517 5.916309E-08
vn 0.5000005 1.409844E-08 3.061792E-08
vn -0.008237711 -0.0004703093 0.4999319
vn -0.008791213 0 0.4999232
vn -0.007684211 -0.0009406186 0.4999405
vn 0.4286065 -0.2574816 5.109387E-08
vn -0.00751185 -0.007105005 0.4998935
vn -0.005579099 -0.004013289 0.166625
vn -0.0004373042 -0.008389782 -0.4999299
vn -0.004612723 -0.002467431 -9.298883E-06
vn -0.008149996 -0.001825043 0.4999024
vn -0.007685691 -0.001408956 0.4999394
vn -0.007842978 -0.001603775 0.4999362
vn 0 0 0
vn -5.960469E-08 0 0.5000005
vn 1.986823E-08 0 -0.1666668
vn -0.01482883 0.008908255 0.4997011

g Cube
usemtl White
f 23/48/16 5/50/18 13/49/17
f 7/51/19 5/50/18 23/48/16
f 10/47/15 7/51/19 23/48/16
f 16/40/21 23/48/21 15/52/19
f 10/47/21 23/48/21 16/40/21
f 12/27/20 10/47/21 16/40/21
f 24/55/24 8/57/8 9/56/8
f 24/55/24 6/53/22 8/57/8
f 14/54/23 6/53/22 24/55/24
f 17/28/8 9/56/8 11/27/8
f 17/28/8 24/55/8 9/56/8
f 18/58/8 24/55/8 17/28/8
f 13/59/25 15/60/25 23/61/25
f 24/55/8 18/58/8 14/54/8
f 4/4/1 2/2/1 1/1/1
f 1/1/1 3/3/1 4/4/1
f 8/8/2 6/6/2 5/5/2
f 5/5/2 7/7/2 8/8/2
f 9/11/3 8/10/3 7/9/3
f 7/9/3 10/12/3 9/11/3
f 11/13/4 9/11/4 10/12/4
f 10/12/4 12/14/4 11/13/4
f 14/17/5 13/16/5 5/15/5
f 5/15/5 6/18/5 14/17/5
f 17/21/6 16/20/6 15/19/6
f 15/19/6 18/22/6 17/21/6
f 19/23/7 11/13/7 12/14/7
f 12/14/7 20/24/7 19/23/7
f 2/25/7 19/23/7 20/24/7
f 20/24/7 1/26/7 2/25/7
f 21/29/8 17/28/8 11/27/8
f 11/27/8 19/30/8 21/29/8
f 4/31/8 21/29/8 19/30/8
f 19/30/8 2/32/8 4/31/8
f 21/35/9 22/34/9 16/33/9
f 16/33/9 17/36/9 21/35/9
f 4/38/10 3/37/10 22/34/10
f 22/34/10 21/35/10 4/38/10
f 22/39/11 20/30/12 12/27/11
f 12/27/11 16/40/13 22/39/11
f 3/42/12 1/41/12 20/30/12
f 20/30/12 22/39/12 3/42/12
f 15/45/14 13/43/14 14/44/14
f 14/44/14 18/46/14 15/45/14

